# This file uses centimeters as units for non-parametric coordinates.

mtllib track.mtl
g default
v 27943.712891 36143.800781 229.978638
v 28730.474609 35526.542969 229.978638
v 28560.974609 36930.562500 229.978638
v 29347.732422 36313.304688 229.978638
v 35408.929688 7731.101563 229.978638
v 36331.019531 8118.070313 229.978638
v 35021.957031 8653.187500 229.978638
v 35944.042969 9040.160156 229.978638
v 35776.769531 19690.937500 229.978638
v 36644.214844 19193.410156 229.978638
v 36274.292969 20558.386719 229.978638
v 37141.742188 20060.863281 229.978638
v 34603.171875 13631.789063 229.978638
v 35593.281250 13491.484375 229.978638
v 34743.472656 14621.894531 229.978638
v 35733.582031 14481.597656 229.978638
v 34266.437500 38192.832031 229.978638
v 34291.890625 39192.507813 229.978638
v 33266.761719 38218.285156 229.978638
v 33292.214844 39217.960938 229.978638
v 37092.339844 37479.601563 229.978638
v 37739.070313 38242.316406 229.978638
v 36329.621094 38126.332031 229.978638
v 36976.351563 38889.050781 229.978638
v 39967.398438 36934.507813 229.978638
v 39062.125000 36509.671875 229.978638
v 40392.234375 36029.238281 229.978638
v 39486.964844 35604.406250 229.978638
v 40095.246094 24969.699219 229.978638
v 39207.933594 25430.867188 229.978638
v 39634.082031 24082.386719 229.978638
v 38746.769531 24543.554688 229.978638
v 41016.867188 31072.253906 229.978638
v 40021.796875 31171.429688 229.978638
v 40917.699219 30077.187500 229.978638
v 39922.628906 30176.359375 229.978638
v 12455.152344 40591.171875 229.978638
v 13432.722656 40801.796875 229.978638
v 12244.531250 41568.742188 229.978638
v 13222.097656 41779.359375 229.978638
v 1660.410400 38623.125000 229.978638
v 2280.127686 37838.300781 229.978638
v 4891.022461 39570.863281 229.978638
v 5510.739258 38786.039063 229.978638
v -1855.538818 36489.632813 229.978638
v -1235.821655 35704.808594 229.978638
v -1070.713257 37109.347656 229.978638
v -450.996460 36324.523438 229.978638
v 22138.332031 36818.644531 229.978638
v 22782.763672 37583.304688 229.978638
v 22540.140625 -7979.764648 229.978638
v 21962.656250 -7163.362305 229.978638
v 21723.738281 -8557.249023 229.978638
v 21146.253906 -7740.846680 229.978638
v 75.941162 -3706.985352 229.978638
v 1075.941162 -3706.985352 229.978638
v 75.941162 -2706.985352 229.978638
v 1075.941162 -2706.985352 229.978638
v 75.941162 -208.794922 229.978638
v 1075.941162 -208.794922 229.978638
v 75.941162 791.205078 229.978638
v 1075.941162 791.205078 229.978638
v 75.941162 2626.578125 229.978638
v 1075.941162 2626.578125 229.978638
v 75.941162 3626.578125 229.978638
v 1075.941162 3626.578125 229.978638
v 75.941162 5408.668945 229.978638
v 1075.941162 5408.668945 229.978638
v 75.941162 6408.668945 229.978638
v 1075.941162 6408.668945 229.978638
v 10784.470703 -10210.749023 229.978638
v 11082.327148 -9256.137695 229.978638
v 9829.860352 -9912.891602 229.978638
v 10127.716797 -8958.280273 229.978638
v 5746.557617 -9152.243164 229.978638
v 6044.415039 -8197.631836 229.978638
v 4791.947266 -8854.385742 229.978638
v 5089.804688 -7899.774414 229.978638
v 16953.982422 -10044.286133 229.978638
v 16876.529297 -9047.290039 229.978638
v 15956.987305 -10121.739258 229.978638
v 15879.534180 -9124.743164 229.978638
v 1855.643677 -7649.634766 229.978638
v 2543.622803 -6923.904297 229.978638
v 1129.913330 -6961.656250 229.978638
v 1817.892456 -6235.925781 229.978638
v 37062.105469 4995.299805 229.978638
v 36093.089844 5242.297852 229.978638
v 36815.109375 4026.284180 229.978638
v 35846.093750 4273.283203 229.978638
v 29559.931641 -4326.204102 229.978638
v 29167.636719 -3406.363281 229.978638
v 28640.089844 -4718.498047 229.978638
v 28247.796875 -3798.657227 229.978638
v 34148.472656 -198.750000 229.978638
v 33442.992188 509.981445 229.978638
v 33439.746094 -904.229492 229.978638
v 32734.261719 -195.500000 229.978638
v -2970.060547 13513.905273 229.978638
v -1971.166260 13560.916992 229.978638
v -3017.072510 14512.799805 229.978638
v -2018.178223 14559.811523 229.978638
v 2230.281250 13513.905273 229.978638
v 3229.175537 13560.916992 229.978638
v 2183.269287 14512.799805 229.978638
v 3182.163574 14559.811523 229.978638
v 1598.516968 11242.640625 229.978638
v 2529.799561 10878.342773 229.978638
v 1962.814453 12173.922852 229.978638
v 2894.096924 11809.625000 229.978638
v 75.941162 8244.041992 229.978638
v 1075.941162 8244.041992 229.978638
v 75.941162 9244.041992 229.978638
v 1075.941162 9244.041992 229.978638
v -1909.069824 10907.844727 229.978638
v -1141.880493 11549.265625 229.978638
v -2550.490479 11675.033203 229.978638
v -1783.301270 12316.454102 229.978638
v -1675.383057 26274.255859 229.978638
v -714.293701 26550.494141 229.978638
v -1951.621094 27235.345703 229.978638
v -990.531738 27511.583984 229.978638
v -2641.716309 29636.330078 229.978638
v -1680.626953 29912.568359 229.978638
v -2917.954346 30597.417969 229.978638
v -1956.864990 30873.656250 229.978638
v -595.355713 22727.220703 229.978638
v 340.148315 23080.537109 229.978638
v -948.671753 23662.724609 229.978638
v -13.167725 24016.041016 229.978638
v -407.950195 18885.242188 229.978638
v 592.049805 18885.242188 229.978638
v -407.950195 19885.242188 229.978638
v 592.049805 19885.242188 229.978638
v 2105.530762 15774.299805 229.978638
v 2882.617920 16403.693359 229.978638
v 1476.137695 16551.386719 229.978638
v 2253.225098 17180.781250 229.978638
v -2858.414063 16374.501953 229.978638
v -1994.509033 15870.846680 229.978638
v -2354.759521 17238.408203 229.978638
v -1490.854492 16734.751953 229.978638
v 575.941162 10017.668945 229.978638
v 575.941162 8244.041992 229.978638
v 92.049805 19885.242188 229.978638
v 92.049805 17930.281250 229.978638
v 26406.541016 35689.460938 229.978638
v 26627.064453 34588.855469 229.978638
v -2096.878174 33289.234375 229.978638
v -2887.281494 33543.523438 229.978638
vt 1.000000 0.000000
vt 1.000000 1.000000
vt 0.000000 1.000000
vt 0.000000 0.000000
vt 1.000000 0.000000
vt 1.000000 1.000000
vt 0.000000 1.000000
vt 0.000000 0.000000
vt 1.000000 0.000000
vt 1.000000 1.000000
vt 0.000000 1.000000
vt 0.000000 0.000000
vt 1.000000 0.000000
vt 1.000000 1.000000
vt 0.000000 1.000000
vt 0.000000 0.000000
vt 1.000000 0.000000
vt 1.000000 1.000000
vt 0.000000 1.000000
vt 0.000000 0.000000
vt 1.000000 0.000000
vt 1.000000 1.000000
vt 0.000000 1.000000
vt 0.000000 0.000000
vt 1.000000 0.000000
vt 1.000000 1.000000
vt 0.000000 1.000000
vt 0.000000 0.000000
vt 1.000000 0.000000
vt 1.000000 1.000000
vt 0.000000 1.000000
vt 0.000000 0.000000
vt 1.000000 0.000000
vt 1.000000 1.000000
vt 0.000000 1.000000
vt 0.000000 0.000000
vt 1.000000 0.000000
vt 1.000000 1.000000
vt 0.000000 1.000000
vt 0.000000 0.000000
vt 1.000000 0.000000
vt 1.000000 1.000000
vt 0.000000 1.000000
vt 0.000000 0.000000
vt 1.000000 0.000000
vt 1.000000 1.000000
vt 0.000000 1.000000
vt 0.000000 0.000000
vt 0.000000 1.000000
vt 1.000000 1.000000
vt 1.000000 0.000000
vt 1.000000 1.000000
vt 0.000000 1.000000
vt 0.000000 0.000000
vt 1.000000 0.000000
vt 1.000000 1.000000
vt 0.000000 1.000000
vt 0.000000 0.000000
vt 1.000000 0.000000
vt 1.000000 1.000000
vt 0.000000 1.000000
vt 0.000000 0.000000
vt 1.000000 0.000000
vt 1.000000 1.000000
vt 0.000000 1.000000
vt 0.000000 0.000000
vt 1.000000 0.000000
vt 1.000000 1.000000
vt 0.000000 1.000000
vt 0.000000 0.000000
vt 1.000000 0.000000
vt 1.000000 1.000000
vt 0.000000 1.000000
vt 0.000000 0.000000
vt 1.000000 0.000000
vt 1.000000 1.000000
vt 0.000000 1.000000
vt 0.000000 0.000000
vt 1.000000 0.000000
vt 1.000000 1.000000
vt 0.000000 1.000000
vt 0.000000 0.000000
vt 1.000000 0.000000
vt 1.000000 1.000000
vt 0.000000 1.000000
vt 0.000000 0.000000
vt 1.000000 0.000000
vt 1.000000 1.000000
vt 0.000000 1.000000
vt 0.000000 0.000000
vt 1.000000 0.000000
vt 1.000000 1.000000
vt 0.000000 1.000000
vt 0.000000 0.000000
vt 1.000000 0.000000
vt 1.000000 1.000000
vt 0.000000 1.000000
vt 0.000000 0.000000
vt 1.000000 0.000000
vt 1.000000 1.000000
vt 0.000000 1.000000
vt 0.000000 0.000000
vt 1.000000 0.000000
vt 1.000000 1.000000
vt 0.000000 1.000000
vt 0.000000 0.000000
vt 1.000000 0.000000
vt 1.000000 1.000000
vt 0.000000 1.000000
vt 0.000000 0.000000
vt 1.000000 0.000000
vt 1.000000 1.000000
vt 0.500000 1.000000
vt 0.500000 0.000000
vt 1.000000 0.000000
vt 1.000000 1.000000
vt 0.000000 1.000000
vt 0.000000 0.000000
vt 1.000000 0.000000
vt 1.000000 1.000000
vt 0.000000 1.000000
vt 0.000000 0.000000
vt 1.000000 0.000000
vt 1.000000 1.000000
vt 0.000000 1.000000
vt 0.000000 0.000000
vt 1.000000 0.000000
vt 1.000000 1.000000
vt 0.000000 1.000000
vt 0.000000 0.000000
vt 1.000000 0.000000
vt 1.000000 1.000000
vt 0.500000 1.000000
vt 0.500000 0.000000
vt 1.000000 0.000000
vt 1.000000 1.000000
vt 0.000000 1.000000
vt 0.000000 0.000000
vt 1.000000 0.000000
vt 1.000000 1.000000
vt 0.000000 1.000000
vt 0.000000 0.000000
vt 0.000000 1.000000
vt 0.000000 0.000000
vt 0.000000 1.000000
vt 0.000000 0.000000
vt 0.500000 0.500000
vt 0.500000 0.500000
vt 1.000000 0.500000
vt 0.000000 0.500000
vn 0.000000 0.000000 1.000000
vn 0.000000 0.000000 1.000000
vn 0.000000 0.000000 1.000000
vn 0.000000 0.000000 1.000000
vn -0.000000 0.000000 1.000000
vn -0.000000 0.000000 1.000000
vn -0.000000 0.000000 1.000000
vn -0.000000 0.000000 1.000000
vn 0.000000 0.000000 1.000000
vn 0.000000 0.000000 1.000000
vn 0.000000 0.000000 1.000000
vn 0.000000 0.000000 1.000000
vn 0.000000 0.000000 1.000000
vn 0.000000 0.000000 1.000000
vn 0.000000 0.000000 1.000000
vn 0.000000 0.000000 1.000000
vn 0.000000 0.000000 1.000000
vn 0.000000 0.000000 1.000000
vn 0.000000 0.000000 1.000000
vn 0.000000 0.000000 1.000000
vn -0.000000 0.000000 1.000000
vn -0.000000 0.000000 1.000000
vn -0.000000 0.000000 1.000000
vn -0.000000 0.000000 1.000000
vn -0.000000 0.000000 1.000000
vn -0.000000 0.000000 1.000000
vn -0.000000 0.000000 1.000000
vn -0.000000 0.000000 1.000000
vn -0.000000 0.000000 1.000000
vn -0.000000 0.000000 1.000000
vn -0.000000 0.000000 1.000000
vn -0.000000 0.000000 1.000000
vn 0.000000 0.000000 1.000000
vn 0.000000 0.000000 1.000000
vn 0.000000 0.000000 1.000000
vn 0.000000 0.000000 1.000000
vn -0.000000 0.000000 1.000000
vn -0.000000 0.000000 1.000000
vn -0.000000 0.000000 1.000000
vn -0.000000 0.000000 1.000000
vn 0.000000 0.000000 1.000000
vn 0.000000 0.000000 1.000000
vn 0.000000 0.000000 1.000000
vn 0.000000 0.000000 1.000000
vn 0.000000 0.000000 1.000000
vn 0.000000 0.000000 1.000000
vn 0.000000 0.000000 1.000000
vn 0.000000 0.000000 1.000000
vn 0.000000 0.000000 1.000000
vn 0.000000 0.000000 1.000000
vn 0.000000 0.000000 1.000000
vn 0.000000 0.000000 1.000000
vn 0.000000 0.000000 1.000000
vn 0.000000 0.000000 1.000000
vn 0.000000 0.000000 1.000000
vn 0.000000 0.000000 1.000000
vn 0.000000 0.000000 1.000000
vn 0.000000 0.000000 1.000000
vn 0.000000 0.000000 1.000000
vn 0.000000 0.000000 1.000000
vn 0.000000 0.000000 1.000000
vn 0.000000 0.000000 1.000000
vn 0.000000 0.000000 1.000000
vn 0.000000 0.000000 1.000000
vn 0.000000 0.000000 1.000000
vn 0.000000 0.000000 1.000000
vn 0.000000 0.000000 1.000000
vn 0.000000 0.000000 1.000000
vn 0.000000 0.000000 1.000000
vn 0.000000 0.000000 1.000000
vn 0.000000 0.000000 1.000000
vn 0.000000 0.000000 1.000000
vn -0.000000 0.000000 1.000000
vn -0.000000 0.000000 1.000000
vn -0.000000 0.000000 1.000000
vn -0.000000 0.000000 1.000000
vn 0.000000 0.000000 1.000000
vn 0.000000 0.000000 1.000000
vn 0.000000 0.000000 1.000000
vn 0.000000 0.000000 1.000000
vn 0.000000 0.000000 1.000000
vn 0.000000 0.000000 1.000000
vn 0.000000 0.000000 1.000000
vn 0.000000 0.000000 1.000000
vn 0.000000 0.000000 1.000000
vn 0.000000 0.000000 1.000000
vn 0.000000 0.000000 1.000000
vn 0.000000 0.000000 1.000000
vn -0.000000 0.000000 1.000000
vn -0.000000 0.000000 1.000000
vn -0.000000 0.000000 1.000000
vn -0.000000 0.000000 1.000000
vn 0.000000 0.000000 1.000000
vn 0.000000 0.000000 1.000000
vn 0.000000 0.000000 1.000000
vn 0.000000 0.000000 1.000000
vn 0.000000 0.000000 1.000000
vn 0.000000 0.000000 1.000000
vn 0.000000 0.000000 1.000000
vn 0.000000 0.000000 1.000000
vn 0.000000 0.000000 1.000000
vn 0.000000 0.000000 1.000000
vn 0.000000 0.000000 1.000000
vn 0.000000 0.000000 1.000000
vn 0.000000 0.000000 1.000000
vn 0.000000 0.000000 1.000000
vn 0.000000 0.000000 1.000000
vn 0.000000 0.000000 1.000000
vn 0.000000 0.000000 1.000000
vn 0.000000 0.000000 1.000000
vn 0.000000 0.000000 1.000000
vn 0.000000 0.000000 1.000000
vn 0.000000 0.000000 1.000000
vn 0.000000 0.000000 1.000000
vn 0.000000 0.000000 1.000000
vn 0.000000 0.000000 1.000000
vn 0.000000 0.000000 1.000000
vn 0.000000 0.000000 1.000000
vn 0.000000 0.000000 1.000000
vn 0.000000 0.000000 1.000000
vn 0.000000 0.000000 1.000000
vn 0.000000 0.000000 1.000000
vn 0.000000 0.000000 1.000000
vn 0.000000 0.000000 1.000000
vn 0.000000 0.000000 1.000000
vn 0.000000 0.000000 1.000000
vn 0.000000 0.000000 1.000000
vn 0.000000 0.000000 1.000000
vn 0.000000 0.000000 1.000000
vn 0.000000 0.000000 1.000000
vn 0.000000 0.000000 1.000000
vn 0.000000 0.000000 1.000000
vn 0.000000 0.000000 1.000000
vn 0.000000 0.000000 1.000000
vn 0.000000 0.000000 1.000000
vn 0.000000 0.000000 1.000000
vn 0.000000 0.000000 1.000000
vn 0.000000 0.000000 1.000000
vn 0.000000 0.000000 1.000000
vn 0.000000 0.000000 1.000000
vn 0.000000 0.000000 1.000000
vn 0.000000 0.000000 1.000000
vn 0.000000 0.000000 1.000000
vn 0.000000 0.000000 1.000000
vn 0.000000 0.000000 1.000000
vn 0.000000 0.000000 1.000000
vn 0.000000 0.000000 1.000000
vn 0.000000 0.000000 1.000000
vn 0.000000 0.000000 1.000000
vn 0.000000 0.000000 1.000000
vn 0.000000 0.000000 1.000000
vn 0.000000 0.000000 1.000000
vn 0.000000 0.000000 1.000000
vn 0.000000 0.000000 1.000000
vn 0.000000 0.000000 1.000000
vn 0.000000 0.000000 1.000000
vn 0.000000 0.000000 1.000000
vn 0.000000 0.000000 1.000000
vn 0.000000 0.000000 1.000000
vn 0.000000 0.000000 1.000000
vn -0.000000 0.000000 1.000000
vn -0.000000 0.000000 1.000000
vn -0.000000 0.000000 1.000000
vn -0.000000 0.000000 1.000000
vn 0.000000 0.000000 1.000000
vn 0.000000 0.000000 1.000000
vn 0.000000 0.000000 1.000000
vn 0.000000 0.000000 1.000000
vn -0.000000 0.000000 1.000000
vn -0.000000 0.000000 1.000000
vn -0.000000 0.000000 1.000000
vn -0.000000 0.000000 1.000000
vn 0.000000 0.000000 1.000000
vn 0.000000 0.000000 1.000000
vn 0.000000 0.000000 1.000000
vn 0.000000 0.000000 1.000000
vn 0.000000 0.000000 1.000000
vn 0.000000 0.000000 1.000000
vn 0.000000 0.000000 1.000000
vn 0.000000 0.000000 1.000000
vn 0.000000 0.000000 1.000000
vn 0.000000 0.000000 1.000000
vn 0.000000 0.000000 1.000000
vn 0.000000 0.000000 1.000000
vn -0.000000 0.000000 1.000000
vn -0.000000 0.000000 1.000000
vn -0.000000 0.000000 1.000000
vn -0.000000 0.000000 1.000000
vn -0.000000 0.000000 1.000000
vn -0.000000 0.000000 1.000000
vn -0.000000 0.000000 1.000000
vn -0.000000 0.000000 1.000000
vn -0.000000 0.000000 1.000000
vn -0.000000 0.000000 1.000000
vn -0.000000 0.000000 1.000000
vn -0.000000 0.000000 1.000000
vn 0.000000 0.000000 1.000000
vn 0.000000 0.000000 1.000000
vn 0.000000 0.000000 1.000000
vn 0.000000 0.000000 1.000000
vn 0.000000 0.000000 1.000000
vn 0.000000 0.000000 1.000000
vn 0.000000 0.000000 1.000000
vn 0.000000 0.000000 1.000000
vn 0.000000 0.000000 1.000000
vn 0.000000 0.000000 1.000000
vn 0.000000 0.000000 1.000000
vn 0.000000 0.000000 1.000000
vn 0.000000 0.000000 1.000000
vn 0.000000 0.000000 1.000000
vn 0.000000 0.000000 1.000000
vn 0.000000 0.000000 1.000000
vn -0.000000 0.000000 1.000000
vn -0.000000 0.000000 1.000000
vn -0.000000 0.000000 1.000000
vn -0.000000 0.000000 1.000000
vn 0.000000 0.000000 1.000000
vn 0.000000 0.000000 1.000000
vn 0.000000 0.000000 1.000000
vn 0.000000 0.000000 1.000000
vn 0.000000 0.000000 1.000000
vn 0.000000 0.000000 1.000000
vn 0.000000 0.000000 1.000000
vn 0.000000 0.000000 1.000000
vn 0.000000 0.000000 1.000000
vn 0.000000 0.000000 1.000000
vn 0.000000 0.000000 1.000000
vn 0.000000 0.000000 1.000000
vn 0.000000 0.000000 1.000000
vn 0.000000 0.000000 1.000000
vn 0.000000 0.000000 1.000000
vn 0.000000 0.000000 1.000000
vn 0.000000 0.000000 1.000000
vn 0.000000 0.000000 1.000000
vn 0.000000 0.000000 1.000000
vn -0.000000 0.000000 1.000000
vn -0.000000 0.000000 1.000000
vn -0.000000 0.000000 1.000000
vn -0.000000 0.000000 1.000000
vn 0.000000 0.000000 1.000000
vn 0.000000 0.000000 1.000000
vn 0.000000 0.000000 1.000000
vn 0.000000 0.000000 1.000000
vn 0.000000 0.000000 1.000000
vn 0.000000 0.000000 1.000000
vn 0.000000 0.000000 1.000000
vn 0.000000 0.000000 1.000000
vn -0.000000 0.000000 1.000000
vn -0.000000 0.000000 1.000000
vn -0.000000 0.000000 1.000000
vn -0.000000 0.000000 1.000000
vn 0.000000 0.000000 1.000000
vn 0.000000 0.000000 1.000000
vn 0.000000 0.000000 1.000000
vn 0.000000 0.000000 1.000000
vn 0.000000 0.000000 1.000000
vn 0.000000 0.000000 1.000000
vn 0.000000 0.000000 1.000000
vn 0.000000 0.000000 1.000000
vn 0.000000 0.000000 1.000000
vn 0.000000 0.000000 1.000000
vn 0.000000 0.000000 1.000000
vn 0.000000 0.000000 1.000000
vn 0.000000 0.000000 1.000000
vn 0.000000 0.000000 1.000000
vn 0.000000 0.000000 1.000000
vn 0.000000 0.000000 1.000000
vn 0.000000 0.000000 1.000000
vn 0.000000 0.000000 1.000000
vn 0.000000 0.000000 1.000000
vn 0.000000 0.000000 1.000000
vn 0.000000 0.000000 1.000000
vn 0.000000 0.000000 1.000000
vn 0.000000 0.000000 1.000000
vn -0.000000 0.000000 1.000000
vn -0.000000 0.000000 1.000000
vn -0.000000 0.000000 1.000000
vn -0.000000 0.000000 1.000000
vn 0.000000 0.000000 1.000000
vn 0.000000 0.000000 1.000000
vn 0.000000 0.000000 1.000000
vn 0.000000 0.000000 1.000000
vn 0.000000 0.000000 1.000000
vn 0.000000 0.000000 1.000000
vn 0.000000 0.000000 1.000000
vn 0.000000 0.000000 1.000000
vn 0.000000 0.000000 1.000000
vn 0.000000 0.000000 1.000000
vn -0.000000 0.000000 1.000000
vn -0.000000 0.000000 1.000000
vn 0.000000 0.000000 1.000000
vn 0.000000 0.000000 1.000000
vn 0.000000 0.000000 1.000000
vn 0.000000 0.000000 1.000000
vn -0.000000 0.000000 1.000000
vn -0.000000 0.000000 1.000000
vn 0.000000 0.000000 1.000000
vn 0.000000 0.000000 1.000000
s off
g race_track
usemtl initialShadingGroup
f 2/1/1 4/2/2 3/3/3 1/4/4
f 6/5/5 8/6/6 7/7/7 5/8/8
f 10/9/9 12/10/10 11/11/11 9/12/12
f 14/13/13 16/14/14 15/15/15 13/16/16
f 18/17/17 20/18/18 19/19/19 17/20/20
f 22/21/21 24/22/22 23/23/23 21/24/24
f 26/25/25 28/26/26 27/27/27 25/28/28
f 30/29/29 32/30/30 31/31/31 29/32/32
f 34/33/33 36/34/34 35/35/35 33/36/36
f 7/7/37 8/6/38 14/13/39 13/16/40
f 10/9/41 9/12/42 15/15/43 16/14/44
f 11/11/45 12/10/46 31/31/47 32/30/48
f 30/29/49 29/32/50 35/35/51 36/34/52
f 27/27/53 28/26/54 34/33/55 33/36/56
f 22/21/57 21/24/58 26/25/59 25/28/60
f 18/17/61 17/20/62 23/23/63 24/22/64
f 3/3/65 4/2/66 19/19/67 20/18/68
f 38/37/69 40/38/70 39/39/71 37/40/72
f 42/41/73 44/42/74 43/43/75 41/44/76
f 46/45/77 48/46/78 47/47/79 45/48/80
f 42/41/81 41/44/82 47/47/83 48/46/84
f 37/40/85 39/39/86 43/43/87 44/42/88
f 40/38/89 38/37/90 49/49/91 50/50/92
f 52/51/93 54/52/94 53/53/95 51/54/96
f 56/55/97 58/56/98 57/57/99 55/58/100
f 60/59/101 62/60/102 61/61/103 59/62/104
f 64/63/105 66/64/106 65/65/107 63/66/108
f 68/67/109 70/68/110 69/69/111 67/70/112
f 72/71/113 74/72/114 73/73/115 71/74/116
f 76/75/117 78/76/118 77/77/119 75/78/120
f 80/79/121 82/80/122 81/81/123 79/82/124
f 84/83/125 86/84/126 85/85/127 83/86/128
f 88/87/129 90/88/130 89/89/131 87/90/132
f 92/91/133 94/92/134 93/93/135 91/94/136
f 96/95/137 98/96/138 97/97/139 95/98/140
f 61/61/141 62/60/142 64/63/143 63/66/144
f 65/65/145 66/64/146 68/67/147 67/70/148
f 57/57/149 58/56/150 60/59/151 59/62/152
f 56/55/153 55/58/154 85/85/155 86/84/156
f 77/77/157 78/76/158 84/83/159 83/86/160
f 73/73/161 74/72/162 76/75/163 75/78/164
f 72/71/165 71/74/166 81/81/167 82/80/168
f 53/53/169 54/52/170 80/79/171 79/82/172
f 52/51/173 51/54/174 93/93/175 94/92/176
f 92/91/177 91/94/178 97/97/179 98/96/180
f 89/89/181 90/88/182 96/95/183 95/98/184
f 100/99/185 102/100/186 101/101/187 99/102/188
f 104/103/189 106/104/190 105/105/191 103/106/192
f 108/107/193 110/108/194 109/109/195 107/110/196
s 1
f 112/111/197 114/112/198 143/113/199 144/114/200
s off
f 116/115/201 118/116/202 117/117/203 115/118/204
f 120/119/205 122/120/206 121/121/207 119/122/208
f 124/123/209 126/124/210 125/125/211 123/126/212
f 128/127/213 130/128/214 129/129/215 127/130/216
s 2
f 132/131/217 134/132/218 145/133/219 146/134/220
s off
f 136/135/221 138/136/222 137/137/223 135/138/224
f 140/139/225 142/140/226 141/141/227 139/142/228
s 3
f 112/111/229 144/114/230 70/68/231
s 1
f 144/114/200 143/113/199 113/143/232 111/144/233
s 3
f 69/69/234 144/114/230 111/144/235
f 70/68/231 144/114/230 69/69/234
s off
f 108/107/236 107/110/237 143/113/238 114/112/239
f 113/143/240 143/113/241 116/115/242 115/118/243
f 100/99/244 99/102/245 117/117/246 118/116/247
f 101/101/248 102/100/249 140/139/250 139/142/251
f 105/105/252 106/104/253 136/135/254 135/138/255
f 104/103/256 103/106/257 109/109/258 110/108/259
f 128/127/260 127/130/261 133/145/262 145/133/263 134/132/264
s 2
f 146/134/220 145/133/219 133/145/265 131/146/266
s off
f 137/137/267 138/136/268 132/131/269 146/134/270
f 146/134/271 131/146/272 141/141/273 142/140/274
f 120/119/275 119/122/276 129/129/277 130/128/278
f 121/121/279 122/120/280 124/123/281 123/126/282
f 6/5/283 5/8/284 88/87/285 87/90/286
s 4
f 2/1/287 1/4/288 147/147/289 148/148/290
s 5
f 149/149/291 150/150/292 125/125/293 126/124/294
s 4
f 148/148/290 147/147/289 50/50/295 49/49/296
s 5
f 46/45/297 45/48/298 150/150/292 149/149/291
